<svg width="808" height="342" viewBox="0 0 808 342" fill="none" xmlns="http://www.w3.org/2000/svg">
<path d="M311.768 262.783C291.543 262.783 276.235 258.794 265.844 250.815C255.453 242.651 250.257 230.126 250.257 213.241V212.684H279.204V217.694C279.204 222.518 280.131 226.508 281.987 229.662C284.028 232.631 287.368 234.858 292.007 236.342C296.831 237.641 303.604 238.29 312.325 238.29C319.747 238.29 325.314 237.734 329.025 236.62C332.921 235.321 335.519 233.559 336.818 231.332C338.117 229.105 338.766 226.322 338.766 222.982C338.766 217.415 336.818 213.519 332.921 211.292C329.025 208.88 322.066 206.746 312.047 204.891L290.337 201.272C282.172 199.602 275.029 197.283 268.905 194.314C262.968 191.16 258.329 186.892 254.989 181.511C251.834 175.944 250.257 168.986 250.257 160.636C250.257 148.204 255.174 138.184 265.009 130.576C274.843 122.783 288.76 118.887 306.758 118.887C317.706 118.887 327.447 120.649 335.983 124.175C344.518 127.7 351.291 132.989 356.301 140.04C361.311 147.091 363.816 155.904 363.816 166.481V168.986H335.148V165.646C335.148 161.193 334.406 157.389 332.921 154.235C331.437 150.895 328.654 148.297 324.571 146.441C320.489 144.586 314.273 143.658 305.923 143.658C294.976 143.658 287.739 145.05 284.214 147.833C280.688 150.616 278.925 154.698 278.925 160.079C278.925 165.46 280.502 169.264 283.657 171.491C286.997 173.532 293.491 175.573 303.14 177.614L326.798 182.068C335.705 183.738 343.127 186.242 349.064 189.582C355.002 192.922 359.455 197.283 362.424 202.664C365.579 208.045 367.156 214.447 367.156 221.869C367.156 234.858 362.239 244.97 352.404 252.207C342.756 259.258 329.21 262.783 311.768 262.783ZM466.294 262.783C453.862 262.783 443.749 260.371 435.956 255.547C428.348 250.537 423.06 244.877 420.091 238.569H412.576L413.968 203.221H419.256C419.256 210.828 420.648 217.137 423.431 222.147C426.4 227.157 430.76 230.961 436.512 233.559C442.265 235.971 449.13 237.177 457.109 237.177C463.603 237.177 469.263 236.342 474.087 234.672C478.911 233.002 482.808 230.404 485.777 226.879C488.931 223.353 491.158 218.622 492.457 212.684C493.941 206.561 494.683 199.231 494.683 190.696C494.683 182.16 493.941 175.016 492.457 169.264C491.158 163.327 488.931 158.502 485.777 154.791C482.808 151.08 478.911 148.482 474.087 146.998C469.448 145.328 463.789 144.493 457.109 144.493C449.13 144.493 442.265 145.792 436.512 148.39C430.76 150.802 426.4 154.513 423.431 159.523C420.648 164.347 419.256 170.656 419.256 178.449H413.968L412.576 144.493H418.143C421.483 136.514 426.956 130.298 434.564 125.845C442.357 121.206 452.284 118.887 464.345 118.887C483.828 118.887 498.766 125.381 509.157 138.37C519.548 151.358 524.743 168.8 524.743 190.696C524.743 212.591 519.733 230.126 509.713 243.3C499.693 256.289 485.22 262.783 466.294 262.783ZM419.256 308.151H389.475V121.67H416.751V154.513L419.256 158.131V308.151ZM578.839 260H548.779V120.835H576.334V159.523L578.839 160.914V260ZM578.839 169.821H571.881V142.823H577.726C580.509 136.329 585.055 130.762 591.364 126.123C597.858 121.299 606.208 118.887 616.414 118.887C626.248 118.887 634.041 121.02 639.793 125.288C645.731 129.556 649.999 135.215 652.597 142.266C655.194 149.317 656.493 157.203 656.493 165.924V175.109H626.434V169.543C626.434 160.265 624.856 153.771 621.702 150.06C618.548 146.348 612.61 144.493 603.889 144.493C594.797 144.493 588.302 146.441 584.406 150.338C580.695 154.049 578.839 160.543 578.839 169.821ZM804.858 260H769.511L733.328 203.221H689.073V176.501H733.049L770.346 121.67H805.415L757.264 187.077L804.858 260ZM705.773 260H675.713V73.5187H705.773V260Z" fill="black"/>
<path fill-rule="evenodd" clip-rule="evenodd" d="M167.783 187.978C166.289 187.753 164.82 187.474 163.36 187.152C172.652 201.214 178.065 218.055 178.065 236.155C178.065 285.297 138.172 325.19 89.0347 325.19C39.8927 325.19 0 285.297 0 236.155C0 227.165 1.33502 218.483 3.81781 210.295C12.6012 234.177 35.561 251.225 62.4731 251.225C96.9537 251.225 124.946 223.232 124.946 188.752C124.946 174.105 119.894 160.629 111.437 149.968C113.541 150.516 115.615 151.14 117.656 151.831C112.888 142.549 110.198 132.027 110.198 120.885C110.198 84.3976 139.051 54.5992 175.164 53.0769C160.306 73.6788 151.551 98.9629 151.551 126.278C151.551 148.705 157.448 169.758 167.783 187.978Z" fill="url(#paint0_linear_624_152)"/>
<path fill-rule="evenodd" clip-rule="evenodd" d="M73.1014 225.81C73.1014 207.437 88.0151 192.517 106.388 192.517C88.0151 192.517 73.1014 177.604 73.1014 159.231C73.1014 177.604 58.1814 192.517 39.8086 192.517C58.1814 192.517 73.1014 207.437 73.1014 225.81Z" fill="#FF5136"/>
<defs>
<linearGradient id="paint0_linear_624_152" x1="89.0347" y1="353.816" x2="198" y2="-21.5393" gradientUnits="userSpaceOnUse">
<stop stop-color="#F7FF00"/>
<stop offset="0.548077" stop-color="#FF5136"/>
</linearGradient>
</defs>
</svg>
